<?xml version="1.0" encoding="utf-8"?>
<!-- Generator: Adobe Illustrator 21.0.0, SVG Export Plug-In . SVG Version: 6.00 Build 0)  -->
<svg version="1.1" id="Layer_1" xmlns="http://www.w3.org/2000/svg" xmlns:xlink="http://www.w3.org/1999/xlink" x="0px" y="0px"
	 viewBox="0 0 353.4 35.1" style="enable-background:new 0 0 353.4 35.1;" xml:space="preserve">
<style type="text/css">
	.st0{clip-path:url(#SVGID_2_);fill:#EDEDE8;}
	.st1{fill:#EDEDE8;}
	.st2{clip-path:url(#SVGID_4_);fill:#EDEDE8;}
	.st3{clip-path:url(#SVGID_6_);fill:#EDEDE8;}
</style>
<g>
	<defs>
		<rect id="SVGID_1_" width="353.3" height="35.1"/>
	</defs>
	<clipPath id="SVGID_2_">
		<use xlink:href="#SVGID_1_"  style="overflow:visible;"/>
	</clipPath>
	<path class="st0" d="M131.1,14.1c0-8.7-3.6-10.5-10.8-10.5c-0.9,0-1.9,0-2.9,0.1v20.7c1.2,0.1,2.4,0.1,3.4,0.1
		C127.6,24.5,131.1,22.8,131.1,14.1 M114,27.3V0.8c1.8,0,3.6-0.1,5.4-0.1c4.9,0,9.3,0.5,12.1,3.2c2.1,2,3.3,5.2,3.3,10.2
		c0,5.4-1.4,8.6-3.6,10.5c-2.6,2.2-6.3,2.7-10.4,2.7C118.9,27.4,116.1,27.4,114,27.3"/>
	<path class="st0" d="M142,15.9h10c0-2.7-1.6-5.3-4.7-5.3C144.3,10.6,142.4,13,142,15.9 M138.7,18c0-5.6,2.9-10,8.7-10
		c5.3,0,7.8,3.8,7.9,8.6c0,0.6,0,1.2-0.1,1.9H142c0.1,3.8,2,6.6,5.5,6.6c3.8,0,4.8-2.6,4.8-2.6l2.7,1.3c0,0-2,4-7.5,4
		C141.5,27.8,138.7,23.7,138.7,18"/>
</g>
<polygon class="st1" points="157.2,8.5 161.1,8.5 166.4,24.1 171.7,8.5 175.2,8.5 168.4,27.3 164.2,27.3 "/>
<g>
	<defs>
		<rect id="SVGID_3_" width="353.3" height="35.1"/>
	</defs>
	<clipPath id="SVGID_4_">
		<use xlink:href="#SVGID_3_"  style="overflow:visible;"/>
	</clipPath>
	<path class="st2" d="M180.5,15.9h10c0-2.7-1.6-5.3-4.7-5.3C182.8,10.6,180.9,13,180.5,15.9 M177.1,18c0-5.6,2.9-10,8.7-10
		c5.3,0,7.8,3.8,7.9,8.6c0,0.6,0,1.2-0.1,1.9h-13.3c0.1,3.8,2,6.6,5.5,6.6c3.8,0,4.8-2.6,4.8-2.6l2.7,1.3c0,0-2,4-7.5,4
		C179.9,27.8,177.1,23.7,177.1,18"/>
</g>
<rect x="198.9" y="0" class="st1" width="3.3" height="27.3"/>
<g>
	<defs>
		<rect id="SVGID_5_" width="353.3" height="35.1"/>
	</defs>
	<clipPath id="SVGID_6_">
		<use xlink:href="#SVGID_5_"  style="overflow:visible;"/>
	</clipPath>
	<path class="st3" d="M221.9,18c0-4.2-1.8-7.2-5.6-7.2c-3.8,0-5.5,3-5.5,7.2c0,4.2,1.8,7.1,5.5,7.1C220.1,25.1,221.9,22.2,221.9,18
		 M207.4,18c0-5,2.7-10,9-10c6.5,0,8.9,4.8,8.9,10c0,5-2.7,9.8-9,9.8C209.9,27.8,207.4,23.2,207.4,18"/>
	<path class="st3" d="M244.4,18c0-4.2-1.7-7.2-5.5-7.2c-3.8,0-5.5,3-5.5,7.2c0,4.2,1.8,7.1,5.5,7.1C242.3,25,244.4,22.2,244.4,18
		 M230.4,8.5h3.1v2.7c0.8-1.3,2.6-3.2,5.9-3.2c6.2,0,8.5,4.9,8.5,10c0,5.3-3.6,9.8-8.8,9.8c-3,0-4.7-1.5-5.5-2.6l0.1,9.9h-3.3V8.5z"
		/>
	<path class="st3" d="M252.9,8.5h3.2v2.7c0.8-1.3,2.5-3.2,5.9-3.2c3.5,0,5,2.1,5.6,3.5c0.7-1.2,2.4-3.5,6.1-3.5c5,0,6.6,3.6,6.6,7.5
		v11.8h-3.3V16.5c0-2.3-0.3-5.6-4.1-5.6c-1.9,0-3.3,0.9-4,2.7c-0.6,1.3-0.6,2.6-0.6,6.3v7.3H265V16.5c0-2.3-0.3-5.6-4.1-5.6
		c-1.9,0-3.3,0.9-4.1,2.7c-0.6,1.3-0.6,2.6-0.6,6.3v7.3h-3.3V8.5z"/>
	<path class="st3" d="M288.3,15.9h10c0-2.7-1.6-5.3-4.7-5.3C290.6,10.6,288.7,13,288.3,15.9 M285,18c0-5.6,2.9-10,8.7-10
		c5.3,0,7.8,3.8,7.9,8.6c0,0.6,0,1.2-0.1,1.9h-13.3c0.1,3.8,2,6.6,5.5,6.6c3.8,0,4.8-2.6,4.8-2.6l2.7,1.3c0,0-2,4-7.5,4
		C287.8,27.8,285,23.7,285,18"/>
	<path class="st3" d="M306.7,8.5h3.2v2.8c0.7-1.3,2.4-3.3,5.9-3.3c4.7,0,6.6,3.6,6.6,7.5v11.8h-3.3V16.5c0-2.4-0.4-5.6-4-5.6
		c-2.1,0-3.9,1.3-4.6,3.1c-0.5,1.3-0.5,2.3-0.5,6v7.3h-3.3V8.5z"/>
	<path class="st3" d="M325.9,8.5h2.6l0.2-5.1h3v5.1h3.6v2.7h-3.6l0,10.7c0,1.3,0,2.8,1.9,2.8c0.9,0,2.1-0.1,2.1-0.1l0.1,2.7
		c0,0-1.5,0.2-3.4,0.2c-2.9,0-3.9-1.5-3.9-4.8V11.3h-2.6V8.5z"/>
	<path class="st3" d="M338.6,22.9l3.2-0.7c0,0,0.2,3,4.4,3c2.6,0,3.8-1,3.8-2.5c0-1.8-1.2-2.6-4.2-3.5c-4.6-1.2-6.3-2.9-6.3-5.9
		c0-2.8,2.2-5.3,6.7-5.3c6.1,0,6.8,4.6,6.8,4.6l-3,0.8c0,0-0.2-2.8-4-2.8c-2,0-3.3,1-3.3,2.5c0,1.5,1.2,2.4,4.8,3.4
		c4.2,1.1,5.9,3,5.9,5.8c0,3.1-2.1,5.6-7.4,5.6C339.3,27.8,338.6,22.9,338.6,22.9"/>
	<path class="st3" d="M7.4,21.3h6c8.9,0,9.8-4.4,9.8-7.4v-0.2c0-3-0.9-7.2-9.8-7.2h-6V21.3z M0,0.6h13.6c13.9,0,17.1,7,17.1,12.4
		v1.1c0,5.6-2.4,13.2-17,13.2H0V0.6z"/>
	<path class="st3" d="M43.2,16.2v5.3H55c2.6,0,3.3-1.3,3.3-2.7v-0.2c0-1.3-0.7-2.4-3.3-2.4H43.2z M43.2,6.2V11h11.2
		c2.2,0,2.9-1.1,2.9-2.3V8.6c0-1.3-0.7-2.3-2.9-2.3H43.2z M35.9,0.6h19.6C63.1,0.6,65,4,65,6.9v0.4c0,3.3-2.9,5.1-5,5.3
		c3.1,0.4,6.3,2.3,6.3,6.6v0.4c0,3.6-2.2,7.7-10.8,7.7H35.9V0.6z"/>
	<path class="st3" d="M84.4,27.8c-12.5,0-13.9-5.6-13.9-8.8v-0.4h8c0.1,1.2,0.6,3.8,6.3,3.8h0.3c5.6,0,6.3-1.7,6.3-3.2
		c0-1.5-0.9-2.6-5.3-2.7l-3.8-0.1c-8.8-0.3-11.6-3.8-11.6-7.8V8.2c0-3.8,2.1-7.9,13.3-7.9h1.2c11.8,0,13.4,4.2,13.4,7.8v0.4h-7.8
		c-0.2-1.2-0.9-2.9-6.1-2.9h-0.3c-4.9,0-5.9,1-5.9,2.3c0,1.3,0.8,2.4,5,2.6l4,0.2c9.4,0.4,11.8,3.4,11.8,7.7v0.4c0,3.9-1.8,9-13.7,9
		H84.4z"/>
</g>
</svg>
