<svg id="Layer_1" data-name="Layer 1" xmlns="http://www.w3.org/2000/svg" viewBox="0 0 48.42 48.42"><defs><style>.cls-1{fill:#0d4745;}</style></defs><title>DBS_social_icons</title><path class="cls-1" d="M30.15,24.36a5.95,5.95,0,1,1-5.94-5.95A5.94,5.94,0,0,1,30.15,24.36Z"/><path class="cls-1" d="M31.86,9.93H16.56a6.78,6.78,0,0,0-6.78,6.78V32a6.78,6.78,0,0,0,6.78,6.77h15.3A6.77,6.77,0,0,0,38.63,32V16.71A6.77,6.77,0,0,0,31.86,9.93Zm-7.65,23.6a9.18,9.18,0,1,1,9.17-9.17A9.18,9.18,0,0,1,24.21,33.53ZM33.69,17a2.14,2.14,0,1,1,2.14-2.14A2.14,2.14,0,0,1,33.69,17Z"/><path class="cls-1" d="M47.34,6.6a11.22,11.22,0,0,0-2.25-3.27A10.89,10.89,0,0,0,37.36.13H11.05a10.87,10.87,0,0,0-7.72,3.2A11.06,11.06,0,0,0,1.07,6.6a10.87,10.87,0,0,0-.94,4.46v26.3A10.93,10.93,0,0,0,11.05,48.29H37.36A10.93,10.93,0,0,0,48.29,37.36V11.06A10.87,10.87,0,0,0,47.34,6.6ZM41.89,31.74A10.21,10.21,0,0,1,31.68,42H16.73A10.2,10.2,0,0,1,6.53,31.74V16.79a10.2,10.2,0,0,1,10.2-10.2h15a10.21,10.21,0,0,1,10.21,10.2Z"/></svg>