<svg id="Layer_1" data-name="Layer 1" xmlns="http://www.w3.org/2000/svg" viewBox="0 0 36.1 36.1"><defs><style>.cls-1{fill:#0d4745;}</style></defs><title>DBS_social_icons</title><path class="cls-1" d="M19.41,16.39v-.05l0,.05Zm10,12.47H24.52v-7.8c0-2-.71-3.3-2.46-3.3a2.65,2.65,0,0,0-2.49,1.77,3.33,3.33,0,0,0-.16,1.19v8.14H14.56s.06-13.22,0-14.59h4.85v2.07a4.81,4.81,0,0,1,4.37-2.41c3.19,0,5.59,2.08,5.59,6.57ZM9.45,12.28h0a2.53,2.53,0,1,1,.06-5,2.53,2.53,0,1,1,0,5m2.42,16.58H7V14.27h4.85ZM0,36.1H36.1V0H0ZM19.38,16.39h0v-.05l0,.05m0,0h0v-.05l0,.05"/></svg>