<svg id="Layer_1" data-name="Layer 1" xmlns="http://www.w3.org/2000/svg" viewBox="0 0 2098.04 646.63"><defs><style>.cls-1{fill:#d15534e;}</style></defs><title>dbs_developments-mobile-logo-green</title><path class="cls-1" d="M150.32,463.12c0-76.56-32-91.93-95-92.23-8,0-16.6.3-25.82.62V552.88c10.76.61,20.9.92,30.12.92,59.95,0,90.68-14.76,90.68-90.68M0,578.39V346.3c16-.31,32-.62,47.34-.62C90.07,346,128.5,350,153.4,374c18.13,17.22,29.2,45.2,29.2,89.16,0,47-12,75.3-31.67,92.22-22.44,19.06-55,23.36-91,24-16.61.3-40.89-.3-59.95-.92"/><path class="cls-1" d="M245.89,478.48H333.2c-.3-24-14.15-46.1-41.19-46.1-26.14,0-42.74,21.21-46.12,46.1m-29.51,18.45c0-48.88,25.21-87.31,76.55-87.31,46.42,0,68.56,33.51,69.17,75a149.14,149.14,0,0,1-.61,16.29H245.27c.62,33.2,17.84,58.11,48.57,58.11C326.74,559,336,536,336,536l24,11.68S342.42,583,293.85,583c-52.88,0-77.47-35.66-77.47-86.07"/><polygon class="cls-1" points="379.27 413.93 413.4 413.93 459.82 550.72 505.93 413.93 536.67 413.93 476.73 578.39 440.14 578.39 379.27 413.93"/><path class="cls-1" d="M583.07,478.48h87.3c-.3-24-14.13-46.1-41.19-46.1-26.13,0-42.72,21.21-46.1,46.1m-29.51,18.45c0-48.88,25.21-87.31,76.54-87.31,46.43,0,68.56,33.51,69.17,75a149.14,149.14,0,0,1-.61,16.29H582.45C583.07,534.12,600.27,559,631,559c32.91,0,42.12-23.05,42.12-23.05l24,11.68S679.58,583,631,583c-52.87,0-77.46-35.66-77.46-86.07"/><rect class="cls-1" x="744.73" y="339.23" width="29.21" height="239.16"/><path class="cls-1" d="M945.77,496.93c0-36.89-15.69-63.33-48.89-63.33S848.62,460,848.62,496.93,864,559,897.2,559s48.57-25.21,48.57-62.09m-127.28,0c0-43.66,24-87.31,79-87.31,56.87,0,78.39,41.8,78.39,87.31,0,43.66-23.67,86.07-78.69,86.07-56.88,0-78.7-40.57-78.7-86.07"/><path class="cls-1" d="M1142.77,496.92c0-36.89-15.05-63-47.94-63-33.2,0-48.57,26.13-48.57,63s15.37,61.79,48.57,61.79c30.12,0,47.94-25.21,47.94-61.79m-122.34-83h27.35v23.67c7.07-11.07,22.76-28,51.35-28,54.39,0,74.07,43.34,74.07,87.31,0,46.42-32,86.07-76.84,86.07-26.14,0-41.52-13.53-48.58-22.74l1.25,86.38h-28.59Z"/><path class="cls-1" d="M1217.75,413.93h27.67v23.37c6.76-11.07,21.82-27.67,51.33-27.67,30.44,0,43.67,18.76,49.19,30.74,5.84-10.76,20.91-30.74,53.5-30.74,44,0,57.48,31.35,57.48,65.48V578.39H1428V483.71c0-20.29-2.77-48.89-35.67-48.89-16.9,0-28.58,8.31-35,24-4.91,11.68-5.53,22.75-5.53,55.64v63.94h-28.59V483.71c0-20.29-2.76-48.89-35.65-48.89-16.91,0-29.21,8.31-35.66,24-4.92,11.68-5.54,22.75-5.54,55.64v63.94h-28.59Z"/><path class="cls-1" d="M1528.2,478.48h87.3c-.3-24-14.13-46.1-41.19-46.1-26.13,0-42.72,21.21-46.1,46.1m-29.51,18.45c0-48.88,25.21-87.31,76.54-87.31,46.43,0,68.56,33.51,69.17,75a149.14,149.14,0,0,1-.61,16.29h-116.2c.62,33.2,17.82,58.11,48.56,58.11,32.91,0,42.12-23.05,42.12-23.05l24,11.68S1624.71,583,1576.14,583c-52.87,0-77.46-35.66-77.46-86.07"/><path class="cls-1" d="M1689.24,413.93h27.67v24.29c6.46-11.39,21.2-28.59,51.65-28.59,41.51,0,58.1,31.35,58.1,65.48V578.39h-28.9V483.71c0-20.6-3.68-48.89-35-48.89-18.76,0-34.14,11.07-40.27,26.74-4.62,11.69-4.62,20.3-4.62,52.88v63.94h-28.59Z"/><path class="cls-1" d="M1857.07,413.93h23.05l1.53-44.58h26.45v44.58h32v24h-32l-.31,94.06c0,11.68,0,24.6,16.6,24.6,8,0,18.13-.92,18.13-.92l1.25,23.66a209.37,209.37,0,0,1-29.51,2.17c-25.52,0-34.44-13.23-34.44-42.12V437.91h-22.74Z"/><path class="cls-1" d="M1968.32,539.65l28.28-6.15s2.15,26.44,38.13,26.44c22.74,0,33.51-8.6,33.51-22.13,0-15.37-10.45-23.06-37.2-30.43-40.57-10.76-55.34-25.51-55.34-51.65,0-24.6,19.68-46.12,59-46.12,53.49,0,59.63,40,59.63,40l-26.44,7.07s-2.14-24.27-34.73-24.27c-17.84,0-29.2,8.59-29.2,21.82s10.44,20.9,42.11,29.51c36.58,9.84,51.65,26.43,51.65,50.41,0,27.06-18.44,48.88-64.86,48.88-58.11,0-64.57-43.34-64.57-43.34"/><path class="cls-1" d="M65.88,184.08H118c78.4,0,85.48-38.36,85.48-64.61v-2c0-25.9-7.74-62.92-85.48-62.92H65.88ZM1.27,2.7H120.73c121.82,0,149.76,61.25,149.76,108.69v9.42c0,48.81-21.21,115.43-149.42,115.43H1.27Z"/><path class="cls-1" d="M380.2,139v46.12h103c22.88,0,29.28-11.78,29.28-23.57v-1.33c0-11.44-6.39-21.21-29.28-21.21Zm0-87.49V93.22h97.92c19.52,0,25.58-9.43,25.58-20.53V72c0-11.11-6.39-20.53-25.58-20.53ZM315.58,2.7h172C554.51,2.7,571,32,571,57.89v3.37c0,29.28-25.24,44.42-43.75,46.43,27.26,3.38,55.52,20.2,55.52,57.55v3.38c0,32-19.18,67.63-94.22,67.63h-173Z"/><path class="cls-1" d="M741.28,240.28c-109.37,0-122.16-49.13-122.16-77.4v-3.7h70c1,10.43,5.38,33.65,55.19,33.65h2.34c48.81,0,55.19-14.81,55.19-27.93S794.12,142,755.75,141l-33-1c-77.4-2.36-101.63-33-101.63-68.3V69c0-33.65,18.17-69,116.44-69h10.77C852,0,865.8,37,865.8,68v3.35H797.14C795.46,61.25,789.41,46.1,744,46.1h-3c-43.08,0-51.49,8.41-51.49,20.19,0,11.11,6.73,21.2,43.41,22.55l34.66,1.35C850,93.56,870.85,119.8,870.85,157.83v3.69c0,34.34-15.48,78.76-120.48,78.76Z"/></svg>